<svg id="Layer_1" enable-background="new 0 0 510 510" height="512" viewBox="0 0 510 510" width="512" xmlns="http://www.w3.org/2000/svg"><path d="m206.375 277.554c-121.663-33.022-233.558 78.725-200.503 200.503 1.488 5.48 5.77 9.762 11.25 11.25 122.149 33.156 233.418-79.238 200.503-200.503-1.489-5.481-5.77-9.763-11.25-11.25z" fill="#aced70"/><path d="m303.629 277.554c-5.48 1.488-9.762 5.769-11.25 11.25-32.853 121.037 78.08 233.732 200.503 200.503 5.48-1.488 9.762-5.77 11.25-11.25 33.027-121.676-78.731-233.551-200.503-200.503z" fill="#aced70"/><path d="m487.027 246.822c0-62.73-41.995-115.829-99.345-132.68-16.852-57.35-69.95-99.345-132.68-99.345s-115.828 41.995-132.68 99.345c-57.35 16.852-99.345 69.95-99.345 132.68s41.995 115.829 99.346 132.68c16.852 57.35 69.95 99.344 132.68 99.344s115.828-41.995 132.68-99.344c57.349-16.851 99.344-69.95 99.344-132.68z" fill="#fc93a0"/><path d="m449.353 293.579c-7.684-61.984 23.674-36.141 14.952-87.968-2.183-12.971-5.959-30.091-10.395-48.468-17.227-20.165-40.137-35.335-66.229-43.002-8.167-27.794-24.847-51.981-47.011-69.53-22.174 1.124-45.863 1.073-66.799-1.658-61.782-8.059-27.62-11.566-74.255 1.472-10.09 2.821-20.596 2.65-30.865.656-21.872 17.51-38.334 41.511-46.429 69.06-33.239 9.767-61.318 31.711-79.055 60.647 4.204 22.914 10.563 49.084 19.818 72.033 16.023 39.735 3.393 67.898-10.199 85.786 17.541 22.105 41.692 38.742 69.437 46.894 8.569 29.162 26.515 54.349 50.329 72.068 50.508-16.364 68.12-21.767 97.542-10.239 13.636 5.343 50.442-.83 89.371-10.399 12.767-14.758 22.476-32.232 28.117-51.431 27.668-8.13 51.76-24.698 69.289-46.712-3.054-11.37-5.782-24.403-7.618-39.209z" fill="#e88793"/><path d="m317.484 184.34c-6.037-101.226-129.626-148.224-201.408-76.444-71.752 71.751-24.809 195.37 76.444 201.408 6.036 101.206 129.606 148.245 201.408 76.444 71.75-71.75 24.809-195.37-76.444-201.408z" fill="#fc93a0"/><path d="m283.155 218.668c-46.062-46.063-121.013-46.064-167.079 0-46.064 46.064-46.064 121.016 0 167.08 46.064 46.063 121.014 46.065 167.079 0 46.064-46.064 46.064-121.016 0-167.08z" fill="#fda5b7"/><path d="m393.927 107.895c-46.064-46.064-121.015-46.062-167.079 0-46.064 46.064-46.064 121.016 0 167.08 46.064 46.063 121.013 46.065 167.079 0 46.065-46.064 46.065-121.016 0-167.08z" fill="#fda5b7"/><path d="m255.002 182.939c-52.656-41.276-131.124-4.086-131.124 63.883 0 67.903 78.435 105.185 131.124 63.883 52.657 41.277 131.124 4.083 131.124-63.883 0-67.903-78.433-105.187-131.124-63.883z" fill="#f7bfcc"/><path d="m255.002 115.698c-67.903 0-105.186 78.434-63.883 131.124-41.276 52.656-4.086 131.124 63.883 131.124 67.903 0 105.186-78.434 63.883-131.124 41.276-52.657 4.085-131.124-63.883-131.124z" fill="#f9d7e2"/><path d="m318.884 246.821c26.589-33.92 22.099-82.726-10.767-111.25-21.473-.768-53.144 13.339-91.292 23.83-11.41 3.138-22.732 2.622-33.63-.308-14.539 27.533-12.303 61.927 7.923 87.728-25.684 32.765-22.469 79.629 7.876 108.618 16.055.176 29.104-5.134 31.521-19.335 6.844-40.224 75.798-18.223 104.51-25.873 3.808-22.729-2.121-45.524-16.141-63.41z" fill="#f9cfda"/><path d="m255.002 183.415c-34.962 0-63.406 28.444-63.406 63.407s28.444 63.406 63.406 63.406 63.406-28.444 63.406-63.406-28.444-63.407-63.406-63.407z" fill="#fee67b"/><path d="m17.122 489.307c17.881 4.854 36.475 6.63 55.142 5.206-8.6-20.309-14.654-48.02-25.896-81.529-6.994-20.845-19.035-33.909-33.072-41.83-14.149 33.291-17.178 70.962-7.423 106.903 1.487 5.481 5.768 9.762 11.249 11.25z" fill="#c8f29c"/><path d="m480.169 341.319c-14.042 27.713-28.376 62.786-40.577 92.017-8.867 21.244-27.135 37.362-50.7 49.767 33.068 13.308 69.578 15.545 103.989 6.205 5.48-1.488 9.762-5.77 11.25-11.25 12.815-47.212 3.589-97.414-23.962-136.739z" fill="#c8f29c"/><path d="m154.001 332.472c-4.206-30.66-30.77-58.327-61.291-80.559-20.552 43.797-12.768 97.702 23.365 133.835 34.764 34.763 86.435 43.588 129.87 25.134-37.266-16.783-86.852-41.292-91.944-78.41z" fill="#f7bfcc"/><path d="m81.529 191.575c9.465-12.058 20.062-28.266 30.219-45.952 21.374-37.216 46.495-32.067 80.552-48.327 10.308-4.921 10.47-13.86 5.697-23.93-64.862.882-116.544 53.572-116.468 118.209z" fill="#fda5b7"/><path d="m421.928 263.297c-19.26 9.21-38.148 49.021-80.581 125.933-6.455 11.7-15.77 21.97-27.129 30.997 79.739-2.564 133.843-81.635 107.71-156.93z" fill="#fda5b7"/><path d="m282.711 76.615c10.562 20.23 24.322 36.612 41.668 39.083 49.488 7.05 31.106 53.002 89.077 93.299 4.123 2.866 8.256 5.294 12.378 7.356 18.252-85.21-58.377-160.019-143.123-139.738z" fill="#f7bfcc"/><path d="m159.374 313.874c-2.185-43.832-22.221-31.391 4.365-97.522 4.786-11.904 2.068-24.235-4.943-36.173-46.914 32.653-46.368 101.625.578 133.695z" fill="#f9cfda"/><path d="m367.634 195.308c-42.374 85.405-16.894 51.576-12.271 115.058 35.784-28.438 40.979-80.196 12.271-115.058z" fill="#f9cfda"/><path d="m255.002 183.415c-25.523 0-47.557 15.167-57.603 36.954 9.208 4.086 18.002 5.379 25.911 2.7 48.828-16.538 35.843 7.068 94.823 29.528 3.4-37.495-26.246-69.182-63.131-69.182z" fill="#feeb95"/></svg>