<svg id="Capa_1" enable-background="new 0 0 511.99 511.99" height="512" viewBox="0 0 511.99 511.99" width="512" xmlns="http://www.w3.org/2000/svg"><g><g><path d="m366.537 224.377c10.113 4.552 12.744 17.654 5.173 25.758-11.074 11.853-26.288 26.2-36.738 28.298-18.219 3.659-35.954-8.144-39.613-26.363s8.144-35.954 26.363-39.613c10.45-2.098 30.023 5.262 44.815 11.92z" fill="#a0e4a5"/></g><g><path d="m144.354 259.971c-9.737-5.308-11.364-18.572-3.198-26.077 11.944-10.978 28.205-24.126 38.784-25.425 18.444-2.264 35.229 10.854 37.491 29.298s-10.856 35.232-29.3 37.496c-10.579 1.299-29.535-7.528-43.777-15.292z" fill="#a0e4a5"/></g><g><path d="m339.194 501.989v-24.184s24.095-26.398 24.095-64.475-24.095-64.475-24.095-64.475h-155.522s-24.095 26.398-24.095 64.475 24.095 64.475 24.095 64.475v24.184h74.18z" fill="#9da5be"/></g><g><path d="m329.335 118.768c-.886-.886-1.841-1.724-2.853-2.503l-22.808-17.647c-1.724 8.599-5.931 16.799-12.592 23.461-6.661 6.661-14.852 10.859-23.451 12.602l17.627 22.808c10.839 14.014 31.505 15.319 44.029 2.795 11.618-11.618 11.336-30.229.048-41.516zm-.048-100.163c-12.332-12.332-33.366-11.044-44.02 2.805l-17.646 22.808c8.589 1.734 16.78 5.931 23.451 12.602s10.868 14.861 12.602 23.451l22.808-17.647c14.014-10.839 15.329-31.495 2.805-44.019zm-97.671 138.884 17.647-22.808c-8.59-1.734-16.78-5.931-23.451-12.602s-10.868-14.861-12.602-23.451l-22.808 17.647c-14.004 10.83-15.329 31.495-2.805 44.019 12.325 12.325 33.372 11.041 44.019-2.805zm17.657-113.272-17.646-22.808c-10.839-14.014-31.505-15.319-44.02-2.805-12.524 12.524-11.219 33.19 2.795 44.029l22.808 17.627c1.743-8.599 5.941-16.79 12.602-23.451s14.861-10.868 23.461-12.592z" fill="#ffc135"/></g><g><ellipse cx="258.445" cy="89.447" fill="#ffd88a" rx="46.148" ry="46.148" transform="matrix(.515 -.857 .857 .515 48.602 264.833)"/></g><g><path d="m293.163 271.268c8.109 11.014 21.14 17.83 35.169 17.83 2.839 0 5.721-.28 8.608-.859 3.914-.786 15.826-3.179 42.076-31.276 5.753-6.157 8.199-14.758 6.543-23.005-1.656-8.249-7.232-15.239-14.917-18.698l-.001-.001c-35.067-15.784-46.977-13.393-50.889-12.604-11.431 2.295-21.283 8.904-27.742 18.61-6.111 9.182-8.486 20.097-6.782 30.926-5.488 3.925-11.17 8.916-16.372 15.201v-114.77l8.49 10.985c6.921 8.948 17.363 14.492 28.649 15.211 11.287.711 22.357-3.458 30.361-11.463 16.515-16.516 14.783-44.74-3.757-59l-18.224-14.1c.134-1.592.215-3.194.215-4.81 0-1.617-.081-3.22-.216-4.813l18.226-14.098c8.952-6.923 14.498-17.367 15.217-28.654.718-11.285-3.458-22.346-11.458-30.346 0-2.919-10.727-7.713-13.021-8.644-5.16-2.093-10.767-3.07-16.33-2.863-11.574.43-22.584 6.076-29.649 15.263l-14.1 18.225c-1.593-.135-3.197-.216-4.814-.216-1.616 0-3.218.081-4.81.215l-14.099-18.223c-14.295-18.48-42.465-20.293-59-3.758-8.003 8.003-12.181 19.067-11.463 30.358.718 11.287 6.262 21.73 15.214 28.654l18.226 14.085c-.135 1.593-.216 3.198-.216 4.815s.081 3.222.216 4.815l-18.229 14.103c-8.95 6.921-14.495 17.365-15.213 28.655-.718 11.287 3.457 22.348 11.455 30.346 16.533 16.532 44.726 14.8 59.007-3.767l9.325-12.052v105.157c-6.81-7.06-14.156-12.115-21.183-15.731-.031-1.464-.135-2.939-.317-4.423-1.419-11.571-7.26-21.897-16.446-29.076-9.187-7.18-20.617-10.352-32.189-8.93-3.962.486-16.02 1.966-44.333 27.988-6.205 5.702-9.297 14.093-8.273 22.444 1.025 8.35 6.053 15.742 13.452 19.775 26.758 14.586 39.882 16.682 46.149 16.682 1.64 0 2.811-.144 3.633-.244 15.06-1.848 27.396-11.208 33.728-23.858 9.846 6.208 19.396 16.165 25.781 32.073v45.45h-65.185-14.095c-5.523 0-10 4.478-10 10 0 3.942 2.287 7.342 5.602 8.97-7.34 12.573-15.602 31.948-15.602 55.504 0 34.123 17.339 59.492 24.095 68.081v20.578c0 5.522 4.477 10 10 10h74.18c5.522 0 10-4.478 10-10s-4.478-10-10-10h-64.18v-14.185c0-2.494-.932-4.899-2.614-6.741-.214-.235-21.48-23.926-21.48-57.733 0-26.35 13.16-46.822 18.88-54.475h145.977c5.734 7.607 18.854 27.92 18.854 54.475 0 33.512-21.287 57.518-21.481 57.733-1.682 1.842-2.614 4.247-2.614 6.741v24.185c0 5.522 4.478 10 10 10s10-4.478 10-10v-20.578c6.756-8.589 24.096-33.958 24.096-68.081 0-23.556-8.262-42.932-15.602-55.504 3.315-1.629 5.602-5.028 5.602-8.971 0-5.522-4.478-10-10-10h-14.096-70.336v-11.229c-.004-28.235 11.391-45.664 24.302-56.354zm30.527-49.006c.587-.118 1.302-.181 2.149-.181 5.811 0 17.798 2.955 36.592 11.414 2.521 1.136 3.287 3.243 3.52 4.398.231 1.155.339 3.395-1.549 5.414-16.123 17.259-26.792 24.396-31.399 25.321-6.191 1.245-12.499.002-17.757-3.498-1.882-1.252-3.538-2.748-4.96-4.426 10.068-4.517 18.241-5.732 19.136-5.855 5.459-.726 9.306-5.732 8.597-11.198-.711-5.478-5.729-9.344-11.203-8.631-.553.072-9.809 1.33-21.751 6.253.564-3.151 1.77-6.183 3.597-8.928 3.498-5.259 8.836-8.84 15.028-10.083zm-136.777 43.076c-4.657.576-17.037-2.842-37.773-14.146-2.426-1.322-3.029-3.481-3.173-4.651s-.08-3.411 1.956-5.283c17.39-15.983 28.57-22.289 33.235-22.861.979-.12 1.957-.18 2.928-.18 5.246 0 10.312 1.735 14.511 5.017 3.412 2.666 5.946 6.146 7.466 10.083-13.693-2.929-24.058-1.899-24.588-1.843-5.476.576-9.434 5.469-8.881 10.946.552 5.479 5.448 9.472 10.932 8.948.835-.083 9.762-.836 21.109 2.084-3.567 6.322-9.981 10.936-17.722 11.886zm61.577-141.134c-27.477-7.838-35.02-44.45-12.779-62.678 12.877-10.553 31.738-10.883 44.91-.619 12.493 9.734 17.344 27.071 11.381 41.811-6.852 16.938-25.863 26.536-43.512 21.486zm59.985-9.228 11.909 9.214c9.123 7.017 9.955 20.901 1.833 29.024-3.999 3.998-9.303 6.008-14.949 5.645-5.636-.358-10.643-3.018-14.098-7.484l-9.197-11.9c10.458-5.357 19.159-14.029 24.502-24.499zm-15.283-87.468c7.022-9.119 20.897-9.957 29.023-1.832 3.996 3.996 5.999 9.3 5.641 14.934-.358 5.636-3.02 10.645-7.494 14.105l-11.895 9.203c-5.352-10.459-14.036-19.142-24.494-24.494zm-84.775 36.411-11.897-9.195c-4.47-3.457-7.129-8.465-7.488-14.102-.358-5.64 1.646-10.947 5.646-14.946 8.148-8.148 21.992-7.259 29.039 1.853l9.198 11.889c-10.471 5.345-19.139 14.041-24.498 24.501zm15.29 87.451c-6.913 9.218-20.982 9.911-29.04 1.853-3.994-3.994-5.996-9.297-5.637-14.933.359-5.639 3.019-10.648 7.49-14.106l11.897-9.205c5.342 10.469 14.044 19.132 24.495 24.494z"/><path d="m304.896 493.68c-3.625-2.412-8.519-2.173-11.893.583-3.242 2.649-4.48 7.221-3.047 11.146 1.422 3.893 5.235 6.582 9.39 6.582 4.234 0 8.105-2.789 9.464-6.788 1.43-4.21-.172-9.075-3.914-11.523z"/></g></g></svg>