<svg viewBox="-82 0 512 512.00002" xmlns="http://www.w3.org/2000/svg" xmlns:xlink="http://www.w3.org/1999/xlink"><linearGradient id="a"><stop offset="0" stop-color="#cfffb4"/><stop offset="1" stop-color="#8ee388"/></linearGradient><linearGradient id="b" gradientTransform="matrix(-.98465 -.19587 -.19587 .98465 447.784 53.978)" gradientUnits="userSpaceOnUse" x1="235.507" x2="235.507" xlink:href="#a" y1="94.969" y2="175.889"/><linearGradient id="c"><stop offset="0" stop-color="#8ee388" stop-opacity="0"/><stop offset="1" stop-color="#4b9345"/></linearGradient><linearGradient id="d" gradientTransform="matrix(-.98465 -.19587 -.19587 .98465 447.784 53.978)" gradientUnits="userSpaceOnUse" x1="301.646" x2="306.554" xlink:href="#c" y1="108.928" y2="-6.715"/><linearGradient id="e" gradientTransform="matrix(-.98465 -.19587 -.19587 .98465 447.784 53.978)" gradientUnits="userSpaceOnUse" x1="173.121" x2="178.143" xlink:href="#c" y1="105.987" y2="-12.341"/><linearGradient id="f" gradientUnits="userSpaceOnUse" x1="180.96891848" x2="187.25646944" xlink:href="#c" y1="234.76267632" y2="269.9691468"/><linearGradient id="g" gradientUnits="userSpaceOnUse" x1="173.9726" x2="173.9726" xlink:href="#a" y1="191.69551224" y2="283.64956464"/><linearGradient id="h" gradientUnits="userSpaceOnUse" x1="263.19398216" x2="268.80991064" xlink:href="#c" y1="207.48315816" y2="75.14943552"/><linearGradient id="i" gradientUnits="userSpaceOnUse" x1="89.6282612" x2="95.29438568" xlink:href="#c" y1="204.25455144" y2="70.74423456"/><linearGradient id="j" gradientUnits="userSpaceOnUse" x1="173.54392616" x2="164.89615928" xlink:href="#c" y1="314.25406584" y2="334.27825416"/><linearGradient id="k" gradientUnits="userSpaceOnUse" x1="200.3154608" x2="179.68390088" xlink:href="#c" y1="289.31167344" y2="279.4511712"/><linearGradient id="l" gradientTransform="matrix(-.73939 -.67915 .67915 -.73939 336.367 224.816)" gradientUnits="userSpaceOnUse" x1="209.279" x2="220.45" xlink:href="#a" y1="6.979" y2="99.4"/><linearGradient id="m" gradientTransform="matrix(-.73939 -.67915 .67915 -.73939 336.367 224.816)" gradientUnits="userSpaceOnUse" x1="204.89" x2="267.196" xlink:href="#c" y1="46.836" y2="-79.343"/><linearGradient id="n" gradientUnits="userSpaceOnUse" x1="219.36082712" x2="105.0585116" y1="357.27404568" y2="242.97173016"><stop offset="0" stop-color="#827a74"/><stop offset="1" stop-color="#605b55"/></linearGradient><linearGradient id="o"><stop offset="0" stop-color="#605b55" stop-opacity="0"/><stop offset="1" stop-color="#4c4843"/></linearGradient><linearGradient id="p" gradientUnits="userSpaceOnUse" x1="117.32239832" x2="105.91083968" xlink:href="#o" y1="331.2082668" y2="294.52101432"/><linearGradient id="q" gradientUnits="userSpaceOnUse" x1="173.52685952" x2="197.5597004" xlink:href="#o" y1="305.10835464" y2="259.93797816"/><linearGradient id="r" gradientUnits="userSpaceOnUse" x1="253.30938584" x2="247.2286424" xlink:href="#o" y1="319.60897512" y2="288.1200204"/><linearGradient id="s" gradientUnits="userSpaceOnUse" x1="185.45041736" x2="185.45041736" xlink:href="#o" y1="314.35445784" y2="330.86894184"/><linearGradient id="t"><stop offset="0" stop-color="#ffb92d"/><stop offset="1" stop-color="#f59500"/></linearGradient><linearGradient id="u" gradientUnits="userSpaceOnUse" x1="136.97413232" x2="136.97413232" xlink:href="#t" y1="523.68683664" y2="505.3281516"/><linearGradient id="v" gradientUnits="userSpaceOnUse" x1="233.9267024" x2="233.9267024" xlink:href="#t" y1="523.68683664" y2="505.3281516"/><linearGradient id="w" gradientUnits="userSpaceOnUse" x1="115.03044896" x2="285.48000224" xlink:href="#t" y1="333.6176748" y2="504.06722808"/><linearGradient id="x"><stop offset="0" stop-color="#be3f45" stop-opacity="0"/><stop offset="1" stop-color="#be3f45"/></linearGradient><linearGradient id="y" gradientUnits="userSpaceOnUse" x1="198.06768392" x2="174.16234088" xlink:href="#x" y1="419.1817764" y2="264.05806584"/><linearGradient id="z" gradientUnits="userSpaceOnUse" x1="172.96667216" x2="295.25818304" xlink:href="#t" y1="361.43730192" y2="113.78228496"/><linearGradient id="A" gradientUnits="userSpaceOnUse" x1="185.45041736" x2="185.45041736" xlink:href="#x" y1="487.56177936" y2="520.60580616"/><path d="m182.511719 271.082031c1.570312.3125 3.253906.136719 4.902343-.605469 4.839844-2.179687 7.515626-8.449218 5.976563-13.996093-11.210937-40.34375-5.644531-75.007813-5.589844-75.355469.988281-5.910156-2.242187-11.328125-7.242187-12.089844-4.988282-.761718-9.828125 3.410156-10.8125 9.324219-.269532 1.632813-6.523438 40.570313 6.105468 86.023437 1.019532 3.660157 3.617188 6.09375 6.660157 6.699219zm0 0" fill="#8ee388"/><path d="m79.238281 32.453125c.3125-1.449219 1.90625-1.917969 2.636719-.78125 3.828125 5.933594 14.832031 18.324219 41.246094 21.53125 25.367187 3.089844 49.542968 26.859375 49.480468 66.460937-.007812 2.394532-2.738281 3.453126-3.726562 1.429688-11.179688-22.910156-28.71875-34.835938-41.546875-40.808594-1.519531-.714844-2.71875 1.898438-1.316406 2.867188 14.386719 9.953125 38.800781 33.1875 48.871093 69.703125 1.210938 4.410156 2.21875 9.011719 2.96875 13.804687 5.523438-9.050781 11.433594-16.890625 17.535157-23.679687 24.648437-27.433594 52.429687-37.757813 70.382812-41.625 1.851563-.402344 1.726563-3.59375-.136719-3.515625-15.742187.691406-38.851562 5.476562-60.101562 24.28125-1.878906 1.65625-4.246094-.59375-3.222656-3.058594 16.800781-40.75 51.777344-54.898438 79.179687-47.273438 28.535157 7.945313 45.125-.109374 51.585938-4.578124 1.238281-.863282 2.675781.296874 2.386719 1.921874-20.234376 112.324219-96.902344 113.128907-126.386719 94.125-1.644531-1.0625-3.84375-1.046874-6.160157-.464843-7.378906 1.847656-13.246093 8.949219-14.960937 17.574219l-.484375 2.421874c-1.132812 5.699219-5.785156 9.875-10.628906 9.207032-4.574219-.628906-7.664063-5.140625-7.507813-10.328125.058594-2.019531.027344-4.042969-.308593-5.992188-2.8125-16.324219-11.726563-22.65625-17.234376-21.65625-31.007812 5.640625-94.375-21.378906-72.550781-121.566406zm0 0" fill="url(#b)"/><path d="m79.238281 32.453125c.253907-1.183594 1.359375-1.695313 2.15625-1.230469 1.859375 10.425782 9.894531 34.210938 44.613281 51.929688 14.390626 9.953125 38.804688 33.1875 48.871094 69.703125 1.214844 4.410156 2.222656 9.011719 2.972656 13.804687.019532-.03125.039063-.058594.058594-.089844.648438 8.878907.265625 17.507813-1 25.433594-.023437-.003906-.046875-.003906-.070312-.007812-4.574219-.628906-7.664063-5.140625-7.511719-10.328125.0625-2.019531.03125-4.042969-.304687-5.992188-2.8125-16.324219-11.726563-22.65625-17.238282-21.65625-31.003906 5.640625-94.371094-21.378906-72.546875-121.566406zm0 0" fill="url(#d)"/><path d="m182.105469 160.035156c4.265625-6.316406 8.71875-11.980468 13.28125-17.054687 24.648437-27.433594 52.429687-37.757813 70.382812-41.625 42.113281-2.546875 62.390625-25.542969 68.664063-34.347657.707031.265626 1.210937 1.101563 1.027344 2.125-20.230469 112.324219-96.902344 113.128907-126.386719 94.125-1.644531-1.0625-3.84375-1.046874-6.160157-.46875-7.375 1.851563-13.246093 8.949219-14.960937 17.578126l-.484375 2.421874c-1.132812 5.699219-5.785156 9.875-10.625 9.207032-.359375-.050782-.707031-.132813-1.046875-.226563zm0 0" fill="url(#e)"/><path d="m186.382812 201.550781c-.152343 13.917969 1.089844 33.632813 7.007813 54.929688 1.539063 5.550781-1.136719 11.816406-5.976563 14-1.648437.738281-3.332031.914062-4.902343.601562-3.042969-.605469-5.640625-3.039062-6.660157-6.699219-6.292968-22.648437-7.894531-43.679687-7.890624-59.285156zm0 0" fill="url(#f)"/><path d="m148.929688 383.378906c-2.148438 0-4.328126-.566406-6.308594-1.753906-5.820313-3.492188-7.707032-11.039062-4.214844-16.855469 25.386719-42.316406 27.140625-82.03125 27.15625-82.425781.253906-6.78125 5.9375-12.085938 12.734375-11.824219 6.785156.253907 12.074219 5.957031 11.824219 12.738281-.070313 1.875-2.039063 46.484376-30.640625 94.152344-2.304688 3.839844-6.375 5.96875-10.550781 5.96875zm0 0" fill="#8ee388"/><path d="m347.894531 141.257812c-.035156-1.679687-2.015625-2.554687-3.28125-1.453124-6.609375 5.746093-24.386719 17.066406-60.09375 14.800781-34.296875-2.171875-72.445312 18.878906-82.757812 62.859375-.621094 2.660156 2.710937 4.4375 4.542969 2.40625 20.773437-22.964844 47.050781-32.332032 65.554687-36.132813 2.191406-.457031 3.089844 2.707031.984375 3.476563-21.601562 7.871094-59.929688 28.273437-82.804688 66.59375-2.757812 4.625-5.296874 9.511718-7.546874 14.667968-4.910157-11.265624-10.65625-21.277343-16.929688-30.160156-25.328125-35.894531-59.292969-53.492187-81.972656-61.75-2.339844-.855468-1.339844-4.371094 1.101562-3.875 20.597656 4.242188 49.847656 14.660156 72.957032 40.226563 2.050781 2.253906 5.761718.277343 5.058593-2.683594-11.476562-48.949219-53.933593-72.378906-92.105469-69.964844-39.757812 2.519531-59.539062-10.082031-66.890624-16.472656-1.410157-1.230469-3.6132818-.257813-3.6562505 1.609375-2.7812495 129.167969 98.2109375 146.988281 142.1171875 132.398438 2.453125-.8125 5.347656-.3125 8.257813.84375 9.25 3.679687 15.132812 12.859374 15.132812 22.816406v2.796875c0 6.574219 5.046875 12.238281 11.613281 12.566406 6.207031.308594 11.46875-4.015625 12.625-9.808594.453125-2.257812 1.023438-4.492187 1.976563-6.585937 8-17.5 21.429687-22.5625 28.4375-20.238282 39.445312 13.113282 130.183594-2.894531 127.679687-118.9375zm0 0" fill="url(#g)"/><path d="m347.894531 141.257812c-.027343-1.371093-1.351562-2.183593-2.523437-1.84375-5.191406 11.164063-22.046875 35.796876-72.527344 47.800782-21.601562 7.871094-59.929688 28.277344-82.804688 66.59375-2.757812 4.628906-5.296874 9.515625-7.546874 14.671875-.015626-.039063-.035157-.078125-.050782-.117188-3.1875 9.714844-4.953125 19.378907-5.363281 28.457031.035156 0 .066406.007813.097656.007813 6.207031.3125 11.464844-4.011719 12.625-9.808594.449219-2.253906 1.023438-4.492187 1.976563-6.582031 7.996094-17.503906 21.429687-22.566406 28.4375-20.238281 39.445312 13.109375 130.183594-2.898438 127.679687-118.941407zm0 0" fill="url(#h)"/><path d="m178.617188 260.183594c-3.96875-7.953125-8.363282-15.226563-13.050782-21.867188-25.332031-35.894531-59.296875-53.492187-81.976562-61.75-54.921875-12.125-75.652344-42.132812-81.617188-53.292968-1.003906.136718-1.8867185.957031-1.9140622 2.132812-2.7812498 129.167969 98.2109372 146.988281 142.1171872 132.398438 2.449219-.8125 5.347657-.3125 8.253907.84375 9.253906 3.679687 15.136718 12.859374 15.136718 22.816406v2.796875c0 6.574219 5.042969 12.238281 11.613282 12.566406.488281.023437.964843.007813 1.4375-.023437zm0 0" fill="url(#i)"/><path d="m162.074219 305.332031c-3.453125 15.484375-10.265625 37.097657-23.667969 59.4375-3.492188 5.816407-1.605469 13.367188 4.214844 16.855469 1.980468 1.1875 4.15625 1.753906 6.308594 1.753906 4.175781 0 8.246093-2.128906 10.550781-5.96875 14.253906-23.753906 21.890625-46.75 25.976562-64.074218zm0 0" fill="url(#j)"/><path d="m191.777344 280.4375c.285156-.617188.574218-1.21875.871094-1.804688l-10.15625-10.152343s6.652343 13.558593 6.042968 27.515625l.261719-.050782c.589844-4.011718.921875-7.207031 1.105469-9.390624.4375-2.09375.988281-4.171876 1.875-6.117188zm0 0" fill="url(#k)"/><path d="m218.488281 1.550781c7.109375 15.484375 27.773438 72.070313-28.222656 110.617188-.851563.589843-2.019531.410156-2.660156-.40625-2.25-2.867188-7.402344-9.90625-12.074219-19.796875-11.269531-23.851563-4.429688-52.316406 16.378906-68.53125 7.246094-5.648438 15.113282-13.042969 22.046875-22.371094 1.199219-1.617188 3.695313-1.335938 4.53125.488281zm0 0" fill="url(#l)"/><path d="m218.488281 1.550781c-.367187-.804687-1.058593-1.308593-1.820312-1.4804685-3.957031 17.3710935-14.269531 38.5664065-24.316407 58.0234375-11.324218 21.925781-5.796874 47.511719-4.035156 54.222656.613282.289063 1.355469.261719 1.949219-.148437 55.996094-38.546875 35.332031-95.132813 28.222656-110.617188zm0 0" fill="url(#m)"/><path d="m255.480469 301.730469c-4.0625 0-7.960938.714843-11.570313 2.027343-3.332031 1.210938-7.058594.328126-9.503906-2.234374-4.65625-4.882813-11.222656-7.929688-18.503906-7.929688-2.300782 0-4.535156.304688-6.65625.875-3.148438.847656-6.496094-.140625-8.746094-2.5-8.988281-9.433594-21.671875-15.316406-35.734375-15.316406-16.800781 0-31.640625 8.398437-40.554687 21.226562-1.757813 2.53125-4.675782 3.960938-7.757813 3.867188-.34375-.011719-.6875-.015625-1.03125-.015625-14.460937 0-26.804687 9.058593-31.664063 21.8125-1.140624 2.992187 1.066407 6.203125 4.269532 6.203125h194.851562c3.203125 0 5.410156-3.210938 4.269532-6.203125-4.863282-12.753907-17.203126-21.8125-31.667969-21.8125zm0 0" fill="url(#n)"/><path d="m115.417969 301.730469c-.53125 0-1.058594.015625-1.582031.039062-.160157.007813-.316407.019531-.476563.027344-.375.023437-.746094.050781-1.117187.085937-.167969.015626-.339844.03125-.503907.050782-.410156.042968-.816406.09375-1.222656.152344-.105469.015624-.214844.027343-.324219.046874-.503906.078126-1.007812.167969-1.503906.265626-.128906.027343-.257812.058593-.386719.085937-.375.078125-.746093.164063-1.117187.257813-.164063.039062-.324219.082031-.488282.125-.355468.09375-.707031.195312-1.058593.300781-.136719.042969-.277344.082031-.414063.125-.480468.148437-.953125.308593-1.421875.480469-.066406.023437-.128906.050781-.195312.074218-.402344.152344-.804688.308594-1.203125.476563-.148438.058593-.292969.125-.441406.1875-.324219.140625-.644532.285156-.960938.4375-.144531.066406-.292969.132812-.4375.207031-.378906.183594-.75.375-1.121094.574219-.066406.035156-.136718.070312-.203125.105469-.429687.234374-.855469.480468-1.277343.734374-.125.074219-.246094.152344-.371094.230469-.300782.1875-.597656.378907-.890625.574219-.140625.09375-.28125.1875-.421875.28125-.296875.203125-.585938.414062-.875.625-.113282.082031-.226563.160156-.335938.242188-.386718.292968-.769531.589843-1.140625.898437-.09375.074219-.179687.15625-.273437.230469-.285156.238281-.566406.484375-.84375.730468-.128906.117188-.257813.234376-.382813.351563-.246093.226563-.488281.457031-.722656.691406-.121094.117188-.242187.234375-.359375.351563-.308594.3125-.609375.628906-.90625.949218-.058594.0625-.117188.125-.171875.191407-.300781.328125-.589844.664062-.875 1.007812-.109375.132813-.21875.269531-.328125.40625-.203125.25-.402344.503907-.597656.757813-.113282.148437-.222656.296875-.335938.445312-.203125.277344-.402344.5625-.597656.84375-.085938.121094-.171875.242188-.253906.367188-.261719.390625-.515625.789062-.765625 1.191406-.085938.140625-.167969.289062-.253907.433594-.167968.277344-.328124.558594-.488281.84375-.09375.171875-.1875.347656-.28125.523437-.148437.273438-.289062.550781-.425781.832031-.085938.167969-.167969.332032-.25.5-.199219.425782-.398438.855469-.582031 1.289063-.054688.128906-.105469.265625-.160157.394531-.117187.289063-.230468.578125-.339843.871094-1.070313 2.96875 1.121093 6.117188 4.296875 6.117188h60.75c-2.777344-15.910157-16.648438-28.011719-33.359375-28.011719zm0 0" fill="url(#p)"/><path d="m214.113281 326c0-13.175781-5.164062-25.144531-13.574219-33.992188-.015624-.011718-.027343-.023437-.039062-.039062-2.246094-2.359375-4.722656-4.492188-7.398438-6.371094-.003906-.003906-.007812-.007812-.011718-.007812-.324219-.230469-.652344-.453125-.984375-.671875-.023438-.015625-.042969-.03125-.066407-.046875-.3125-.207032-.628906-.410156-.949218-.613282-.035156-.023437-.070313-.042968-.109375-.066406-.304688-.191406-.609375-.382812-.921875-.566406-.046875-.03125-.09375-.058594-.144532-.085938-.296874-.179687-.597656-.351562-.902343-.523437-.058594-.035156-.117188-.070313-.179688-.101563-.289062-.164062-.585937-.324218-.878906-.484374-.070313-.035157-.140625-.074219-.210937-.109376-.289063-.152343-.578126-.300781-.871094-.449218-.078125-.039063-.15625-.078125-.234375-.117188-.285157-.140625-.570313-.277344-.859375-.414062-.085938-.039063-.171875-.082032-.257813-.121094-.28125-.128906-.566406-.257812-.851562-.382812-.089844-.042969-.183594-.082032-.277344-.125-.28125-.121094-.5625-.242188-.84375-.355469-.101563-.042969-.199219-.082031-.300781-.121094-.277344-.113281-.558594-.222656-.839844-.332031-.105469-.042969-.207031-.082032-.3125-.121094-.277344-.101562-.558594-.203125-.839844-.304688-.109375-.039062-.21875-.074218-.328125-.113281-.277343-.097656-.558593-.191406-.839843-.28125-.113282-.039062-.226563-.074219-.339844-.109375-.277344-.089844-.558594-.175781-.835938-.257812-.121094-.035156-.238281-.074219-.355468-.105469-.277344-.082031-.558594-.160156-.839844-.234375-.121094-.035156-.242188-.066406-.363282-.101562-.28125-.070313-.5625-.140626-.84375-.210938-.121093-.03125-.246093-.0625-.367187-.089844-.285156-.066406-.570313-.128906-.855469-.191406-.121094-.027344-.246094-.054688-.371094-.082031-.285156-.058594-.574218-.113281-.863281-.171875-.125-.019532-.246093-.046875-.367187-.070313-.292969-.050781-.589844-.101562-.882813-.148437-.121093-.019532-.242187-.042969-.363281-.0625-.300781-.046875-.601562-.085938-.90625-.128906-.117188-.015626-.230469-.035157-.347656-.046876-.3125-.042968-.628906-.078124-.941406-.113281-.109376-.011719-.214844-.023437-.320313-.035156-.332031-.035156-.667969-.0625-1-.09375-.09375-.007813-.183594-.015625-.273437-.023437-.371094-.027344-.742188-.050782-1.113282-.070313-.054687-.003906-.109375-.007813-.167968-.011719-.863282-.042968-1.730469-.066406-2.605469-.066406-.488281 0-.976563.007812-1.460938.023438-.128906.003906-.253906.007812-.382812.011718-.355469.011719-.710938.03125-1.066407.050782-.152343.007812-.304687.019531-.457031.027343-.34375.023438-.6875.050781-1.027343.082031-.140626.011719-.277344.023438-.417969.035157-.421875.042969-.839844.089843-1.257813.140625-.050781.003906-.101562.011718-.152344.015625-.476562.0625-.949218.128906-1.421874.203125-.105469.015625-.210938.035156-.3125.050781-.363282.058594-.722657.121094-1.082032.1875-.140625.027344-.285156.054687-.425781.082031-.332031.0625-.660156.132813-.988281.203125-.136719.027344-.273438.058594-.410156.085938-.371094.085937-.738282.171875-1.109376.265625-.082031.019531-.167968.039062-.25.058594-.460937.121093-.917968.242187-1.371093.371093-.054688.015625-.109375.035157-.167969.050781-.386719.113282-.773438.230469-1.160156.351563-.121094.039063-.242188.078125-.363282.121094-.328124.105469-.652343.214843-.976562.328125-.125.042968-.25.085937-.375.132812-.34375.121094-.6875.25-1.03125.382813-.085938.03125-.175781.066406-.265625.097656-.871094.339844-1.730469.707031-2.574219 1.09375-.089844.039063-.179687.082031-.269531.125-.332031.152344-.664063.308594-.992187.472656-.105469.050781-.207032.101563-.3125.15625-.328126.164063-.65625.335938-.980469.503907-.082031.046874-.167969.089843-.25.132812-.824219.441406-1.636719.90625-2.433594 1.394531-.050781.03125-.101563.066407-.152344.097657-.339843.207031-.675781.421874-1.011719.640624-.085937.054688-.167968.109376-.25.164063-.316406.210937-.628906.421875-.9375.636719-.074218.050781-.144531.101562-.21875.148437-.769531.542969-1.527343 1.105469-2.265624 1.6875-.003907.003907-.007813.007813-.007813.011719-.355469.277344-.707031.566406-1.050781.855469-.0625.050781-.125.105469-.1875.15625-.296875.25-.589844.503906-.878906.761719-.066407.058593-.128907.113281-.191407.171874-.320312.285157-.636719.574219-.949219.871094-.023437.019532-.042968.035156-.0625.054688-.6875.648437-1.351562 1.316406-2 2.003906-.046874.050781-.09375.097656-.136718.148438-.273438.289062-.539063.582031-.804688.878906-.054687.0625-.113281.128906-.171875.195312-.269531.304688-.535156.613282-.796875.925782-.035156.039062-.070312.082031-.105468.121093-.601563.726563-1.1875 1.46875-1.75 2.226563-.03125.042968-.0625.085937-.09375.132812-.242188.324219-.476563.652344-.707032.984375-5.589844 8-8.871094 17.730469-8.871094 28.230469 0 1.257812.046876 2.507812.140626 3.742188h98.414062c.09375-1.234376.144531-2.484376.144531-3.742188zm0 0" fill="url(#q)"/><path d="m222.121094 329.742188h60.753906c3.171875 0 5.367188-3.148438 4.296875-6.117188-.109375-.292969-.226563-.582031-.34375-.871094-.054687-.128906-.101563-.261718-.160156-.394531-.183594-.433594-.378907-.863281-.582031-1.289063-.078126-.167968-.164063-.332031-.246094-.5-.140625-.28125-.28125-.558593-.425782-.832031-.09375-.175781-.1875-.351562-.285156-.523437-.15625-.285156-.320312-.566406-.484375-.84375-.085937-.144532-.167969-.292969-.257812-.433594-.246094-.402344-.5-.800781-.761719-1.191406-.082031-.125-.171875-.246094-.253906-.367188-.195313-.285156-.394532-.566406-.601563-.84375-.109375-.148437-.222656-.296875-.335937-.445312-.195313-.253906-.394532-.507813-.59375-.757813-.109375-.136719-.21875-.273437-.332032-.40625-.285156-.34375-.574218-.679687-.871093-1.007812-.058594-.0625-.117188-.128907-.171875-.191407-.296875-.320312-.597656-.636718-.90625-.949218-.117188-.117188-.238282-.234375-.359375-.351563-.238281-.234375-.476563-.464843-.722657-.691406-.128906-.117187-.253906-.234375-.382812-.351563-.277344-.246093-.558594-.492187-.84375-.730468-.09375-.074219-.183594-.15625-.273438-.230469-.375-.308594-.753906-.605469-1.140624-.898437-.109376-.082032-.222657-.160157-.335938-.242188-.289062-.210938-.582031-.421875-.878906-.625-.136719-.09375-.277344-.1875-.417969-.28125-.292969-.195312-.589844-.386719-.890625-.574219-.125-.074219-.25-.15625-.375-.230469-.417969-.253906-.84375-.5-1.273438-.734374-.070312-.035157-.136718-.070313-.203124-.105469-.371094-.199219-.746094-.390625-1.125-.574219-.144532-.070312-.289063-.140625-.433594-.207031-.320313-.152344-.640625-.296875-.964844-.4375-.144531-.0625-.292969-.125-.441406-.1875-.398438-.167969-.796875-.324219-1.203125-.476563-.0625-.023437-.128907-.050781-.195313-.074218-.46875-.171876-.941406-.332032-1.417968-.480469-.136719-.042969-.277344-.082031-.417969-.125-.351563-.105469-.703125-.207031-1.058594-.300781-.160156-.042969-.324219-.085938-.488281-.125-.367188-.09375-.742188-.179688-1.117188-.257813-.128906-.027344-.253906-.058594-.382812-.085937-.5-.097657-1-.1875-1.507813-.265626-.105469-.019531-.214843-.03125-.320312-.046874-.40625-.058594-.8125-.109376-1.222657-.152344-.167968-.019532-.335937-.035156-.503906-.050782-.371094-.035156-.746094-.0625-1.121094-.085937-.15625-.007813-.316406-.019531-.476562-.027344-.523438-.023437-1.050781-.039062-1.578125-.039062-.550781 0-1.097656.015625-1.640625.039062-.175781.007813-.347656.023438-.523438.035157-.367187.023437-.734374.050781-1.097656.082031-.207031.023437-.410156.046875-.617187.070312-.328125.039063-.660157.078125-.988281.125-.214844.03125-.425782.0625-.640626.097657-.316406.054687-.632812.109374-.945312.171874-.210938.039063-.425781.082032-.636719.125-.316406.066407-.628906.140626-.945312.21875-.199219.050782-.402344.09375-.601563.148438-.339844.089844-.679687.1875-1.019531.289062-.164063.046876-.328125.09375-.492187.144532-11.9375 3.742187-21.023438 13.917968-23.214844 26.464844zm0 0" fill="url(#r)"/><path d="m83.753906 323.542969c-1.140625 2.992187 1.070313 6.199219 4.273438 6.199219h194.847656c3.203125 0 5.414062-3.207032 4.273438-6.199219-2.21875-5.824219-6.003907-10.875-10.832032-14.644531h-181.726562c-4.832032 3.769531-8.613282 8.820312-10.835938 14.644531zm0 0" fill="url(#s)"/><path d="m136.972656 512c-4.984375 0-9.03125-4.042969-9.03125-9.03125v-7.4375h18.0625v7.4375c0 4.988281-4.042968 9.03125-9.03125 9.03125zm0 0" fill="url(#u)"/><path d="m233.925781 512c-4.988281 0-9.03125-4.042969-9.03125-9.03125v-7.4375h18.0625v7.4375c0 4.988281-4.042969 9.03125-9.03125 9.03125zm0 0" fill="url(#v)"/><path d="m252.910156 502.96875h-134.921875c-9.820312 0-18.117187-7.292969-19.378906-17.035156l-19.40625-150.132813h212.496094l-19.410157 150.132813c-1.257812 9.742187-9.554687 17.035156-19.378906 17.035156zm0 0" fill="url(#w)"/><path d="m272.289062 485.933594 19.410157-150.132813h-212.5l2.421875 18.714844 148.453125 148.453125h22.835937c9.824219 0 18.121094-7.292969 19.378906-17.035156zm0 0" fill="url(#y)"/><path d="m295.417969 354.21875h-219.9375c-9.972657 0-18.0625-8.085938-18.0625-18.0625s8.089843-18.0625 18.0625-18.0625h219.9375c9.976562 0 18.0625 8.085938 18.0625 18.0625s-8.085938 18.0625-18.0625 18.0625zm0 0" fill="url(#z)"/><path d="m94.082031 450.90625 4.527344 35.027344c1.261719 9.742187 9.558594 17.035156 19.378906 17.035156h134.921875c9.824219 0 18.121094-7.292969 19.378906-17.035156l4.53125-35.027344zm0 0" fill="url(#A)"/></svg>