<svg id="Capa_1" enable-background="new 0 0 512 512" height="512" viewBox="0 0 512 512" width="512" xmlns="http://www.w3.org/2000/svg"><g><path d="m241.51 414.988c-26.836 29.896-65.777 48.697-109.117 48.697-44.154 0-83.754-19.522-110.631-50.407 26.599-30.328 65.633-49.48 109.137-49.48 43.505 0 82.538 19.151 109.137 49.48.496.566.99 1.133 1.474 1.71z" fill="#9bd069"/><path d="m240.037 413.278c.495.567.989 1.133 1.473 1.71-26.836 29.896-65.777 48.697-109.117 48.697-44.154 0-83.754-19.522-110.631-50.407z" fill="#7dbe3b"/><path d="m143.487 240.147c-38.56 0-73.151 16.974-96.723 43.853 23.821 27.369 58.91 44.672 98.043 44.672 38.407 0 72.917-16.67 96.704-43.163-23.591-27.75-58.748-45.362-98.024-45.362z" fill="#9bd069"/><path d="m48.115 285.504h193.395c-23.787 26.496-58.298 43.165-96.703 43.165-38.415 0-72.926-16.668-96.692-43.165z" fill="#7dbe3b"/><path d="m241.51 170.196c-21.387 23.818-52.416 38.807-86.958 38.807s-65.561-14.989-86.947-38.807c-.422-.453-.814-.907-1.216-1.36 21.201-24.168 52.302-39.425 86.978-39.425 35.316 0 66.932 15.834 88.143 40.785z" fill="#9bd069"/><path d="m67.606 170.196h173.904c-21.387 23.818-52.416 38.807-86.958 38.807-34.541 0-65.56-14.989-86.946-38.807z" fill="#7dbe3b"/><path d="m241.51 59.338c-18.904 21.057-46.338 34.305-76.862 34.305s-57.968-13.248-76.851-34.305c-.371-.391-.721-.793-1.071-1.195 18.729-21.366 46.224-34.861 76.872-34.861 31.214 0 59.163 14 77.912 36.056z" fill="#9bd069"/><path d="m87.797 59.338h153.713c-18.904 21.057-46.338 34.305-76.862 34.305s-57.968-13.248-76.851-34.305z" fill="#7dbe3b"/><path d="m490.237 414.988c-26.836 29.896-65.777 48.697-109.117 48.697-44.154 0-83.743-19.522-110.621-50.407 26.599-30.328 65.623-49.48 109.137-49.48 43.505 0 82.538 19.151 109.127 49.48.496.566.99 1.133 1.474 1.71z" fill="#9bd069"/><path d="m490.237 414.988c-26.836 29.896-65.777 48.697-109.117 48.697-44.154 0-83.743-19.522-110.621-50.407h218.264c.496.566.99 1.133 1.474 1.71z" fill="#7dbe3b"/><path d="m465.245 285.504c-23.787 26.496-58.298 43.165-96.703 43.165-38.415 0-72.926-16.668-96.693-43.165-.464-.495-.907-.999-1.35-1.504 23.571-26.877 58.164-43.855 96.724-43.855 39.271 0 74.431 17.617 98.022 45.359z" fill="#9bd069"/><path d="m465.245 285.504c-23.787 26.496-58.298 43.165-96.703 43.165-38.415 0-72.926-16.668-96.693-43.165z" fill="#7dbe3b"/><path d="m445.61 170.196c-21.387 23.818-52.416 38.807-86.958 38.807-34.532 0-65.561-14.989-86.937-38.807-.422-.453-.814-.907-1.216-1.36 21.191-24.168 52.292-39.425 86.968-39.425 35.315 0 66.932 15.834 88.143 40.785z" fill="#9bd069"/><path d="m445.61 170.196c-21.387 23.818-52.416 38.807-86.958 38.807-34.532 0-65.561-14.989-86.937-38.807z" fill="#7dbe3b"/><path d="m425.285 59.338c-18.904 21.057-46.338 34.305-76.862 34.305s-57.968-13.248-76.852-34.305c-.371-.391-.721-.793-1.071-1.195 18.729-21.366 46.224-34.861 76.872-34.861 31.214 0 59.163 14 77.913 36.056z" fill="#9bd069"/><path d="m425.285 59.338c-18.904 21.057-46.338 34.305-76.862 34.305s-57.968-13.248-76.852-34.305z" fill="#7dbe3b"/><path d="m256.003 0c-10.849 0-19.644 8.795-19.644 19.644v492.356h39.287v-492.356c.001-10.849-8.794-19.644-19.643-19.644z" fill="#9bd069"/><path d="m264.01 1.71c-6.861 3.06-11.641 9.941-11.641 17.936v492.354h-16.009v-492.354c0-10.848 8.797-19.646 19.645-19.646 2.854 0 5.563.608 8.005 1.71z" fill="#7dbe3b"/></g></svg>