<svg id="Layer_1" enable-background="new 0 0 510.958 510.958" height="512" viewBox="0 0 510.958 510.958" width="512" xmlns="http://www.w3.org/2000/svg"><path d="m254.37 286.968c-8.836 0-16 7.164-16 16v191.99c0 8.836 7.164 16 16 16s16-7.164 16-16v-191.99c0-8.836-7.163-16-16-16z" fill="#90c453"/><path d="m320.505 103.785-21.563-91.457c-1.704-7.224-8.152-12.328-15.574-12.328h-23.102c-30.01 0-55.964 21.378-61.712 50.834l-10.45 53.559c-1.927 9.874 5.644 19.064 15.704 19.064h101.123c10.282 0 17.948-9.597 15.574-19.672z" fill="#fda5b7"/><path d="m363.041 54.035c-2.255-4.111-6.199-7.026-10.791-7.975-78.721-16.267-132.045 36.981-180.54 101.04-3.715 4.908-4.286 11.512-1.467 16.984 16.437 31.907 49.034 52.137 85.468 52.137 52.984 0 96.09-43.106 96.09-96.091 0-40.938 19.148-51.674 11.24-66.095z" fill="#e88793"/><path d="m340.776 149.524c-33.635-66.366-93.638-101.285-178.344-103.789-5.36-.148-10.413 2.363-13.51 6.719-10.221 14.366 10.248 26.01 10.248 67.677 0 52.984 43.106 96.09 96.091 96.09 36.151 0 68.9-19.978 85.467-52.137 2.351-4.564 2.369-9.98.048-14.56z" fill="#fda5b7"/><path d="m380.87 99c-94.929 9.584-174.375 76.375-232.983 133.493-5.038 4.909-6.278 12.533-3.057 18.786 21.508 41.752 64.026 67.689 110.96 67.689 68.596 0 124.749-55.773 124.749-124.75 0-32.65 8.964-52.781 16.891-73.608 4.225-11.097-4.724-22.808-16.56-21.61z" fill="#e88793"/><path d="m364.134 233.621c-59.008-69.782-143.983-109.971-231.378-134.124-12.582-3.477-23.886 8.841-19.216 21.113 8.118 21.33 16.891 41.13 16.891 73.609 0 68.787 55.962 124.749 124.75 124.749 46.935 0 89.452-25.937 110.96-67.689 2.962-5.751 2.17-12.719-2.007-17.658z" fill="#fc93a0"/><path d="m379.285 341.23c-1.581-4.888-5.413-8.719-10.3-10.3-77.5-25.066-150.834 48.257-125.767 125.767 1.581 4.888 5.413 8.719 10.3 10.3 77.503 25.066 150.834-48.259 125.767-125.767z" fill="#86bff2"/><path d="m379.285 341.23c-1.581-4.888-5.413-8.719-10.3-10.3-77.5-25.066-150.834 48.257-125.767 125.767 1.581 4.888 5.413 8.719 10.3 10.3 77.503 25.066 150.834-48.259 125.767-125.767z" fill="#9bd65e"/><path d="m368.985 330.93c-55.863-18.068-113.628 15.513-127.589 70.35 20.675 6.119 41.424 7.708 55.728-2.317 25.844-18.114 59.349-16.407 85.72-10.543 2.566-15.461 1.483-31.605-3.558-47.19-1.582-4.888-5.414-8.719-10.301-10.3z" fill="#aced70"/><path d="m352.083 220.188c-59.451-23.187-55.227-20.755-171.633 5.53-18.199 4.109-32.952 5.053-44.932 3.78 15.257 51.66 63.123 89.47 119.661 89.47 46.935 0 89.452-25.937 110.96-67.689 2.962-5.75 2.17-12.719-2.006-17.658-3.861-4.567-7.891-9.039-12.05-13.433z" fill="#e88793"/><path d="m380.87 99c-38.682 3.905-74.791 17.311-107.969 35.688 23.448 17.174 59.618 35.917 108.856 39.921 2.703-21.813 8.316-34.665 15.674-53.999 4.224-11.097-4.725-22.808-16.561-21.61z" fill="#fc93a0"/><g fill="#f7bfcc"><path d="m162.432 45.735c-11.468-.318-19.46 11.09-15.426 21.685 4.917 12.919 7.328 18.497 9.516 28.41 13.348 4.881 31.399 7.074 55.67 3.088 28.65-4.706 56.647-7.895 80.538-10.047-33.345-27.09-76.91-41.558-130.298-43.136z"/><path d="m352.25 46.06c-28.798-5.951-55.803-2.9-81.94 9.346 30.982 17.641 47.818 17.529 91.356 18.053l2.299-6.039c3.504-9.204-2.071-19.367-11.715-21.36z"/></g></svg>