<svg id="Layer_1" enable-background="new 0 0 511.062 511.062" height="512" viewBox="0 0 511.062 511.062" width="512" xmlns="http://www.w3.org/2000/svg"><path d="m255.682 255.816c-8.836 0-16 7.164-16 16v223.246c0 8.836 7.164 16 16 16s16-7.164 16-16v-223.246c0-8.836-7.164-16-16-16z" fill="#90c453"/><path d="m198.133 318.637h-13.708c-8.836 0-16 7.164-16 16v57.653c0 40.472 32.926 73.398 73.398 73.398h13.708c8.836 0 16-7.164 16-16v-57.654c0-40.47-32.926-73.397-73.398-73.397z" fill="#91c656"/><path d="m306.059.104h-21.989c-59.593 0-108.075 48.482-108.075 108.075v107.952c0 8.836 7.164 16 16 16h21.989c59.593 0 108.075-48.482 108.075-108.075v-107.952c0-8.837-7.163-16-16-16z" fill="#b375d3"/><path d="m369.595 48.678h-21.989c-59.593 0-108.075 48.482-108.075 108.075v107.952c0 8.836 7.164 16 16 16h21.989c59.593 0 108.075-48.482 108.075-108.075v-107.952c0-8.836-7.163-16-16-16z" fill="#ae5ecc"/><path d="m326.637 290.449h-13.708c-40.472 0-73.398 32.926-73.398 73.398v104.052c0 8.836 7.164 16 16 16h13.708c40.472 0 73.398-32.926 73.398-73.398v-104.052c0-8.836-7.164-16-16-16z" fill="#9bd65e"/><path d="m163.456 48.678h-21.989c-8.836 0-16 7.164-16 16v107.952c0 59.593 48.482 108.075 108.075 108.075h21.989c8.836 0 16-7.164 16-16v-107.952c0-59.593-48.482-108.075-108.075-108.075z" fill="#ae67ce"/><path d="m326.446 290.449h-13.517c-40.472 0-73.398 32.926-73.398 73.398v90.218c74.992 16.491 43.126-48.771 56.07-98.821 7.831-30.278 21.231-52.069 30.845-64.795z" fill="#aced70"/><path d="m184.426 318.637c-8.836 0-16 7.164-16 16 0 59.433-.972 64.682 2.909 78.065 12.709-5.685 27.438-13.2 39.744-47.774 7.651-21.495 4.593-35.956-3.558-45.67-5.935-.761-7.817-.621-23.095-.621z" fill="#aced70"/><path d="m369.595 48.678c-24.197 0-40.447-1.385-63.691 8.373 11.492 20.424 25.641 52.012 26.675 85.126 1.623 51.939-39.392 102.48 12.79 114.508 24.518-19.829 40.226-50.14 40.226-84.056v-107.951c0-8.836-7.163-16-16-16z" fill="#ae67ce"/><path d="m205.797 163.169c18.372-35.208 6.565-79.208-5.297-107.95-21.133-7.734-35.626-6.541-59.033-6.541-8.836 0-16 7.164-16 16v107.952c0 40.743 22.666 76.288 56.047 94.701 7.505-4.484 15.315-8.168 23.402-10.645 88.924-27.243-29.054-36.149.881-93.517z" fill="#b375d3"/><path d="m306.059.104c-24.619 0-57.688-3.167-91.625 25.497 24.822 7.27 54.727-3.924 107.625-1.938v-7.558c0-8.838-7.163-16.001-16-16.001z" fill="#b882d8"/></svg>